<?xml version="1.0" encoding="UTF-8"?>
<svg width="321px" height="93px" viewBox="0 0 321 93" version="1.1" xmlns="http://www.w3.org/2000/svg" xmlns:xlink="http://www.w3.org/1999/xlink">
    <!-- Generator: Sketch 51.2 (57519) - http://www.bohemiancoding.com/sketch -->
    <title>logo</title>
    <desc>Created with Sketch.</desc>
    <defs></defs>
    <g id="Page-1" stroke="none" stroke-width="1" fill="none" fill-rule="evenodd">
        <g id="Desktop-HD" transform="translate(-43.000000, -41.000000)" fill-rule="nonzero">
            <g id="Group-5">
                <g id="logo" transform="translate(43.000000, 41.000000)">
                    <g id="image" fill="#A0001E">
                        <path d="M0,0 L0,62.5802058 L42.8900723,93 L86,62.4252817 L86,0 L0,0 Z M42.8900723,80.8065654 L10.0768244,57.5504315 L10.0768244,9.7461953 L75.9421407,9.7461953 L75.9421407,57.3948065 L42.8900723,80.8065654 Z" id="Shape"></path>
                        <polygon id="Shape" points="37.1813357 17 16 55 27.9393183 55 43.4996517 26.7958381 59.0599851 55 71 55 49.8179677 17"></polygon>
                    </g>
                    <g id="Logo" transform="translate(107.000000, 12.000000)" fill="#20292D">
                        <g id="Group-6">
                            <path d="M13.059407,37.3051205 C13.059407,40.2548193 14.4211965,41.0194779 17.7979861,41.0194779 L20.140993,41.0194779 C24.2803287,41.0194779 26.132727,38.397992 30.054793,31.3516064 L31.9611583,31.3516064 L30.054793,43.2052209 L0.693264348,43.2052209 L0.693264348,41.2928715 C4.50669565,40.8564257 5.0512713,40.5282129 5.0512713,37.5243976 L5.0512713,10.5399598 C5.0512713,7.53544177 4.50669565,7.20793173 0.693264348,6.77078313 L0.693264348,4.85843373 L17.4174139,4.85843373 L17.4174139,6.77078313 C13.6039826,7.20793173 13.059407,7.53544177 13.059407,10.5399598 L13.059407,37.3051205 Z M59.4702887,37.1413655 C59.4702887,38.9981928 59.8515617,40.2 61.2680191,40.2 C62.085233,40.2 62.8470783,39.9266064 63.4463217,39.6546185 L63.772927,40.8564257 C62.1938678,42.7139558 60.1234991,43.7513052 57.5632226,43.7513052 C54.6223739,43.7513052 52.66064,41.9485944 52.1167652,38.9440763 C50.3737026,41.238755 47.5414887,43.6416667 43.6187217,43.6416667 C39.2067478,43.6416667 36.2651983,40.9653614 36.2651983,36.5959839 C36.2651983,31.8976908 39.6426887,29.986747 43.7280574,28.4560241 L51.9534626,25.4522088 L51.9534626,20.8094378 C51.9534626,17.6959839 50.9182783,15.4561245 48.0853635,15.4561245 C45.47112,15.4561245 44.4359357,17.4225904 44.4359357,20.0447791 C44.4359357,21.1369478 44.5992383,22.2298193 44.8718765,23.4309237 L40.350567,24.0318273 C38.8801426,23.5405622 37.953593,22.3928715 37.953593,20.5901606 C37.953593,16.0570281 42.6382052,13.7082329 48.6853078,13.7082329 C55.6575583,13.7082329 59.4709896,16.2748996 59.4709896,22.6662651 L59.4709896,37.1413655 L59.4702887,37.1413655 Z M51.9527617,37.6333333 L51.9527617,27.4186747 L47.2681496,29.3303213 C44.9805113,30.2046185 43.5640539,31.4605422 43.5640539,34.5191767 C43.5640539,37.3599398 44.8711757,39.3812249 47.7587583,39.3812249 C49.3385183,39.3812249 50.4283704,38.7803213 51.9527617,37.6333333 Z M103.920137,22.9937751 C103.920137,19.8803213 102.830285,18.2961847 99.9980713,18.2961847 C97.8190678,18.2961847 96.0753043,19.3335341 94.3869096,20.5901606 L94.3869096,38.9981928 C94.3869096,40.9105422 95.0954887,41.238755 97.6003965,41.4018072 L97.6003965,43.2045181 L83.54656,43.2045181 L83.54656,41.4018072 C86.1068365,41.238755 86.8154157,40.9105422 86.8154157,38.9981928 L86.8154157,22.9937751 C86.8154157,19.8803213 85.7255635,18.2961847 82.8926487,18.2961847 C80.7143461,18.2961847 78.9705826,19.3335341 77.22752,20.5353414 L77.22752,38.9981928 C77.22752,40.9105422 77.990767,41.238755 80.4956748,41.4018072 L80.4956748,43.2045181 L66.2785357,43.2045181 L66.2785357,41.4018072 C68.8388122,41.238755 69.709993,40.9105422 69.709993,38.9981928 L69.709993,19.661747 L66.4418383,17.7501004 L66.4418383,16.7120482 L76.1923357,13.7075301 L77.4447896,13.7075301 L77.2268191,19.1156627 C79.5151583,16.1659639 82.40204,13.7075301 86.9773165,13.7075301 C90.9540504,13.7075301 93.3510243,15.4006024 94.0589026,19.2245984 C96.3472417,16.3297189 99.5060609,13.7075301 104.028071,13.7075301 C109.039289,13.7075301 111.49023,16.7120482 111.49023,22.50251 L111.49023,38.9981928 C111.49023,40.9105422 112.362111,41.238755 114.86772,41.4018072 L114.86772,43.2045181 L100.704548,43.2045181 L100.704548,41.4018072 C103.210157,41.238755 103.918736,40.9105422 103.918736,38.9981928 L103.918736,22.9937751 L103.920137,22.9937751 Z M116.993457,4.20341365 L116.993457,3.05572289 L126.63532,0.434236948 L127.833807,0.434236948 L127.833807,18.8422691 C129.631537,16.1111446 132.627755,13.7075301 136.985762,13.7075301 C143.630706,13.7075301 147.826111,18.5695783 147.826111,26.9815261 C147.826111,37.6874498 141.235134,43.7513052 132.845725,43.7513052 C128.051777,43.7513052 123.367866,42.4946787 120.263014,39.9273092 L120.263014,5.89718876 L116.993457,4.20341365 Z M140.199249,29.6578313 C140.199249,22.9389558 137.748308,18.2961847 132.627755,18.2961847 C130.830725,18.2961847 129.087663,19.0608434 127.833807,20.2078313 L127.833807,35.4475904 C127.833807,39.5997992 129.468235,41.7293173 132.790357,41.7293173 C137.421703,41.7300201 140.199249,36.3767068 140.199249,29.6578313 Z M168.484943,4.20341365 L168.484943,3.05572289 L178.126805,0.434236948 L179.325292,0.434236948 L179.325292,37.414759 C179.325292,39.2722892 179.433927,39.87249 181.503595,40.036245 L182.865384,40.1451807 L182.865384,41.7841365 L172.950883,43.7506024 L171.534426,43.7506024 L171.752397,38.6699799 C169.574094,41.7841365 166.795847,43.7506024 162.982416,43.7506024 C156.391438,43.7506024 151.978763,38.3972892 151.978763,30.0942771 C151.978763,19.7699799 158.079833,13.8164659 165.869297,13.8164659 C168.374906,13.8164659 170.444574,14.5263052 171.752397,15.7281124 L171.752397,5.89578313 L168.484943,4.20341365 Z M159.443024,27.4727912 C159.443024,34.1368474 162.166603,39.1078313 167.123854,39.1078313 C168.976252,39.1078313 170.500643,38.5069277 171.753097,37.3599398 L171.753097,22.9389558 C171.753097,18.6785141 169.956068,16.1659639 166.687212,16.1659639 C162.111936,16.1659639 159.443024,20.6449799 159.443024,27.4727912 Z M209.558703,37.1413655 C209.558703,38.9981928 209.939976,40.2 211.355732,40.2 C212.172946,40.2 212.935492,39.9266064 213.533334,39.6546185 L213.861341,40.8564257 C212.281581,42.7139558 210.211913,43.7513052 207.651637,43.7513052 C204.710087,43.7513052 202.749054,41.9485944 202.204478,38.9440763 C200.461416,41.238755 197.629202,43.6416667 193.707136,43.6416667 C189.295162,43.6416667 186.353612,40.9653614 186.353612,36.5959839 C186.353612,31.8976908 189.730402,29.986747 193.81577,28.4560241 L202.041176,25.4522088 L202.041176,20.8094378 C202.041176,17.6959839 201.00529,15.4561245 198.173077,15.4561245 C195.558833,15.4561245 194.523649,17.4225904 194.523649,20.0447791 C194.523649,21.1369478 194.68625,22.2298193 194.958889,23.4309237 L190.437579,24.0318273 C188.967155,23.5405622 188.041306,22.3928715 188.041306,20.5901606 C188.041306,16.0570281 192.725918,13.7082329 198.77232,13.7082329 C205.74457,13.7082329 209.558703,16.2748996 209.558703,22.6662651 L209.558703,37.1413655 Z M202.041176,37.6333333 L202.041176,27.4186747 L197.355863,29.3303213 C195.067523,30.2046185 193.651767,31.4605422 193.651767,34.5191767 C193.651767,37.3599398 194.958889,39.3812249 197.84577,39.3812249 C199.426231,39.3812249 200.515383,38.7803213 202.041176,37.6333333 Z" id="Shape"></path>
                        </g>
                    </g>
                </g>
            </g>
        </g>
    </g>
</svg>